# xmcd
# 
# Track frame offsets:
#	150
#	10415
#	22870
#	34830
#	43353
#	53378
#	63518
#	75920
#	84380
#	94593
#	103028
#	115808
#	127343
#	138245
#	148360
#	159218
#
# Disc length: 2254 seconds
#
# Revision: 1
# Processed by: cddbd v1.4PL0 Copyright (c) Steve Scherf et al.
# Submitted via: Audio-CD-Archiv 2.10.435
#
DISCID=cc08cc10
DTITLE=Johnny Cash - The Best Of
DYEAR=1900
DGENRE=country
TTITLE0=There You Go
TTITLE1=Next In Line
TTITLE2=Doin' My Time
TTITLE3=Country Boy
TTITLE4=Rock Island line
TTITLE5=Hey Porter
TTITLE6=I Walk The Line
TTITLE7=Guess Things Happens That Way
TTITLE8=Get Rhythm
TTITLE9=Wreck Of The Old 97
TTITLE10=Folsom Prison Blues
TTITLE11=Big River
TTITLE12=Train Of Love
TTITLE13=Born To Loose
TTITLE14=I Heard That Lonesome Whistle
TTITLE15=Ballad Of A Teenage Queen
EXTD=
EXTT0=
EXTT1=
EXTT2=
EXTT3=
EXTT4=
EXTT5=
EXTT6=
EXTT7=
EXTT8=
EXTT9=
EXTT10=
EXTT11=
EXTT12=
EXTT13=
EXTT14=
EXTT15=
PLAYORDER=
